<svg width="1000" height="760" viewBox="0 0 1000 760" fill="none" xmlns="http://www.w3.org/2000/svg">
  <defs>
    <linearGradient id="bgD" x1="90" y1="50" x2="890" y2="700" gradientUnits="userSpaceOnUse">
      <stop stop-color="#EAFBF5"/>
      <stop offset="0.45" stop-color="#C8F4E6"/>
      <stop offset="1" stop-color="#9ADCC8"/>
    </linearGradient>
  </defs>
  <rect width="1000" height="760" rx="44" fill="url(#bgD)"/>
  <rect x="110" y="118" width="780" height="490" rx="34" fill="#FFFFFF" stroke="#DCEFE8" stroke-width="8"/>
  <rect x="158" y="168" width="240" height="84" rx="22" fill="#EEF9F5"/>
  <rect x="424" y="168" width="418" height="84" rx="22" fill="#EEF9F5"/>
  <rect x="158" y="286" width="316" height="270" rx="28" fill="#F7FCFA"/>
  <rect x="504" y="286" width="338" height="270" rx="28" fill="#F7FCFA"/>
  <path d="M202 494L261 436L312 464L381 378L430 409" stroke="#12B886" stroke-width="18" stroke-linecap="round" stroke-linejoin="round"/>
  <rect x="547" y="334" width="250" height="20" rx="10" fill="#C4E9DB"/>
  <rect x="547" y="383" width="210" height="20" rx="10" fill="#CFEFE3"/>
  <rect x="547" y="432" width="160" height="20" rx="10" fill="#D9F2E9"/>
  <rect x="547" y="481" width="188" height="20" rx="10" fill="#CFEFE3"/>
  <circle cx="808" cy="138" r="74" fill="white" fill-opacity="0.55"/>
  <circle cx="174" cy="624" r="96" fill="#BDEEDC"/>
</svg>
