<svg width="1000" height="760" viewBox="0 0 1000 760" fill="none" xmlns="http://www.w3.org/2000/svg">
  <defs>
    <linearGradient id="bg" x1="130" y1="90" x2="880" y2="690" gradientUnits="userSpaceOnUse">
      <stop stop-color="#A5F0E1"/>
      <stop offset="0.35" stop-color="#C8F7EE"/>
      <stop offset="0.7" stop-color="#87CABB"/>
      <stop offset="1" stop-color="#6D8E87"/>
    </linearGradient>
    <radialGradient id="mist" cx="0" cy="0" r="1" gradientUnits="userSpaceOnUse" gradientTransform="translate(480 250) rotate(67) scale(360 500)">
      <stop stop-color="white" stop-opacity="0.8"/>
      <stop offset="1" stop-color="white" stop-opacity="0"/>
    </radialGradient>
    <filter id="grain" x="-20%" y="-20%" width="140%" height="140%">
      <feTurbulence type="fractalNoise" baseFrequency="0.85" numOctaves="2" stitchTiles="stitch" />
      <feColorMatrix type="saturate" values="0"/>
      <feComponentTransfer>
        <feFuncA type="table" tableValues="0 0.08"/>
      </feComponentTransfer>
    </filter>
  </defs>

  <rect width="1000" height="760" rx="44" fill="url(#bg)"/>
  <rect width="1000" height="760" rx="44" fill="url(#mist)"/>

  <path d="M659 508C755 492 828 528 893 603C789 625 700 674 630 742C507 699 419 681 303 700C387 604 493 528 659 508Z" fill="#4E6F68"/>
  <path d="M538 478C633 447 718 488 762 569C682 567 584 604 487 683C397 648 323 634 244 640C306 558 394 524 538 478Z" fill="#5C7E76"/>
  <path d="M565 407C630 401 675 436 709 493C650 499 593 534 524 589C471 560 418 548 374 551C415 489 465 430 565 407Z" fill="#32544E"/>
  <circle cx="470" cy="231" r="230" fill="white" fill-opacity="0.18"/>
  <circle cx="715" cy="165" r="135" fill="white" fill-opacity="0.14"/>
  <rect width="1000" height="760" rx="44" filter="url(#grain)" opacity="0.55"/>
</svg>
