<svg width="1000" height="760" viewBox="0 0 1000 760" fill="none" xmlns="http://www.w3.org/2000/svg">
  <defs>
    <linearGradient id="sky" x1="118" y1="80" x2="903" y2="706" gradientUnits="userSpaceOnUse">
      <stop stop-color="#E7F6F4"/>
      <stop offset="0.48" stop-color="#D3ECE7"/>
      <stop offset="1" stop-color="#AECFC6"/>
    </linearGradient>
    <filter id="grain" x="-20%" y="-20%" width="140%" height="140%">
      <feTurbulence type="fractalNoise" baseFrequency="0.75" numOctaves="2" stitchTiles="stitch"/>
      <feColorMatrix type="saturate" values="0"/>
      <feComponentTransfer>
        <feFuncA type="table" tableValues="0 0.08"/>
      </feComponentTransfer>
    </filter>
  </defs>
  <rect width="1000" height="760" rx="44" fill="url(#sky)"/>
  <circle cx="231" cy="154" r="110" fill="white" fill-opacity="0.6"/>
  <path d="M0 595C115 537 204 518 297 536C379 551 456 602 529 611C623 623 713 563 809 554C884 547 941 565 1000 603V760H0V595Z" fill="#7CA49C"/>
  <path d="M0 631C109 592 181 587 260 600C352 615 426 666 505 676C594 687 677 649 758 633C845 617 918 628 1000 667V760H0V631Z" fill="#5F817A"/>
  <rect x="96" y="305" width="74" height="173" rx="8" fill="#4C6A66"/>
  <rect x="181" y="262" width="106" height="216" rx="8" fill="#4A6460"/>
  <rect x="299" y="212" width="86" height="266" rx="8" fill="#3D5854"/>
  <rect x="401" y="272" width="69" height="206" rx="8" fill="#597773"/>
  <rect x="485" y="185" width="112" height="293" rx="8" fill="#314947"/>
  <rect x="609" y="242" width="94" height="236" rx="8" fill="#4C6B66"/>
  <rect x="716" y="284" width="71" height="194" rx="8" fill="#597772"/>
  <rect x="801" y="223" width="108" height="255" rx="8" fill="#39514E"/>
  <rect x="141" y="335" width="14" height="18" rx="3" fill="#CFE8E1"/>
  <rect x="141" y="365" width="14" height="18" rx="3" fill="#CFE8E1"/>
  <rect x="141" y="395" width="14" height="18" rx="3" fill="#CFE8E1"/>
  <rect x="213" y="291" width="16" height="18" rx="3" fill="#D7EFE8"/>
  <rect x="239" y="291" width="16" height="18" rx="3" fill="#D7EFE8"/>
  <rect x="213" y="323" width="16" height="18" rx="3" fill="#D7EFE8"/>
  <rect x="239" y="323" width="16" height="18" rx="3" fill="#D7EFE8"/>
  <rect x="329" y="245" width="16" height="18" rx="3" fill="#D7EFE8"/>
  <rect x="329" y="278" width="16" height="18" rx="3" fill="#D7EFE8"/>
  <rect x="329" y="311" width="16" height="18" rx="3" fill="#D7EFE8"/>
  <rect x="529" y="224" width="18" height="22" rx="4" fill="#D8F0E7"/>
  <rect x="557" y="224" width="18" height="22" rx="4" fill="#D8F0E7"/>
  <rect x="529" y="260" width="18" height="22" rx="4" fill="#D8F0E7"/>
  <rect x="557" y="260" width="18" height="22" rx="4" fill="#D8F0E7"/>
  <rect x="835" y="255" width="18" height="20" rx="4" fill="#D8F0E7"/>
  <rect x="864" y="255" width="18" height="20" rx="4" fill="#D8F0E7"/>
  <rect width="1000" height="760" rx="44" filter="url(#grain)" opacity="0.55"/>
</svg>
